<?xml version="1.0" standalone="no"?><!DOCTYPE svg PUBLIC "-//W3C//DTD SVG 1.1//EN" "http://www.w3.org/Graphics/SVG/1.1/DTD/svg11.dtd"><svg t="1644848653963" class="icon" viewBox="0 0 1024 1024" version="1.1" xmlns="http://www.w3.org/2000/svg" p-id="2169" xmlns:xlink="http://www.w3.org/1999/xlink" width="200" height="200"><defs><style type="text/css"></style></defs><path d="M905.472 507.3408c0-56.576 39.2192-120.576 18.7904-169.728-21.1456-50.9952-94.9248-68.3008-133.3248-106.7008-38.4512-38.4512-55.7056-112.1792-106.7008-133.3248-49.2032-20.3776-113.2032 18.7904-169.728 18.7904-56.576 0-120.576-39.2192-169.728-18.7904C293.7344 118.6816 276.48 192.4096 238.0288 230.8608c-38.4512 38.4512-112.1792 55.7056-133.3248 106.7008-20.3776 49.2032 18.7904 113.2032 18.7904 169.728 0 56.576-39.2192 120.576-18.7904 169.728 21.1456 50.9952 94.9248 68.3008 133.3248 106.7008 38.4512 38.4512 55.7056 112.1792 106.7008 133.3248 49.2032 20.3776 113.2032-18.7904 169.728-18.7904 56.576 0 120.576 39.2192 169.728 18.7904 50.9952-21.1456 68.3008-94.9248 106.7008-133.3248 38.4512-38.4512 112.1792-55.7056 133.3248-106.7008 20.48-49.152-18.7392-113.152-18.7392-169.6768z" fill="#FF5D50" p-id="2170"></path><path d="M478.208 687.8208c-15.9232 0-31.1808-6.5536-42.1376-18.0736l-101.4784-106.7008c-22.1184-23.296-21.1968-60.1088 2.0992-82.2272 23.296-22.1184 60.1088-21.1968 82.2272 2.048l58.112 61.1328 128.768-143.104c21.504-23.8592 58.2656-25.8048 82.176-4.3008 23.8592 21.504 25.8048 58.2656 4.3008 82.176l-170.8544 189.8496a58.16832 58.16832 0 0 1-42.4448 19.2512c-0.256-0.0512-0.512-0.0512-0.768-0.0512z" fill="#FFDF99" p-id="2171"></path></svg>